<?xml version="1.0" encoding="UTF-8"?>
<svg width="2600px" height="600px" viewBox="0 0 2600 600" xmlns="http://www.w3.org/2000/svg" xmlns:xlink="http://www.w3.org/1999/xlink" version="1.1">
 <!-- Generated by Pixelmator Pro 1.5.3 -->
 <g id="Intelligent_Alerting">
  <path id="Path" d="M289.58 222.28 L272 204.74 262.36 210.52 C260.903 209.826 259.411 209.208 257.89 208.67 L255.16 197.76 230.37 197.76 227.65 208.67 C226.129 209.208 224.636 209.826 223.18 210.52 L213.54 204.74 196 222.28 201.78 231.93 C201.085 233.387 200.468 234.879 199.93 236.4 L189 239.12 189 263.94 199.91 266.66 C200.448 268.185 201.065 269.68 201.76 271.14 L196 280.78 213.55 298.33 223.19 292.54 C224.645 293.239 226.137 293.856 227.66 294.39 L230.38 305.3 255.2 305.3 257.93 294.39 C259.451 293.852 260.943 293.234 262.4 292.54 L272.04 298.33 289.59 280.78 283.8 271.14 C284.503 269.684 285.12 268.188 285.65 266.66 L296.56 263.94 296.56 239.12 285.65 236.4 C285.112 234.879 284.494 233.387 283.8 231.93 Z" fill="#87ceee" fill-opacity="1" stroke="none"/>
  <path id="Path-1" d="M275.87 115.04 L284.14 115.04 284.14 135.72 275.87 135.72 Z" fill="#5a9d26" fill-opacity="1" stroke="none"/>
  <path id="Path-2" d="M316.02 155.19 L310.17 149.34 321.37 138.14 321.37 86.09 329.64 86.09 329.64 141.57 Z" fill="#73e558" fill-opacity="1" stroke="none"/>
  <path id="Path-3" d="M349.11 180.01 L343.26 174.16 354.46 162.96 354.46 119.18 362.73 119.18 362.73 166.39 Z" fill="#4a8824" fill-opacity="1" stroke="none"/>
  <path id="Path-4" d="M280 106.77 C274.98 106.774 270.452 103.753 268.527 99.116 266.604 94.479 267.663 89.14 271.211 85.588 274.76 82.037 280.098 80.974 284.737 82.894 289.375 84.814 292.4 89.34 292.4 94.36 292.389 101.205 286.846 106.753 280 106.77 Z M280 90.22 C278.325 90.216 276.812 91.222 276.168 92.769 275.524 94.316 275.876 96.098 277.059 97.284 278.242 98.47 280.024 98.826 281.572 98.186 283.12 97.546 284.13 96.035 284.13 94.36 284.13 92.078 282.282 90.226 280 90.22 Z" fill="#e56565" fill-opacity="1" stroke="none"/>
  <path id="Path-5" d="M238.65 86.09 L246.92 86.09 246.92 131.59 238.65 131.59 Z" fill="#4a8824" fill-opacity="1" stroke="none"/>
  <path id="Path-6" d="M242.78 77.82 C235.926 77.82 230.37 72.264 230.37 65.41 230.37 58.556 235.926 53 242.78 53 249.634 53 255.19 58.556 255.19 65.41 255.179 72.259 249.629 77.809 242.78 77.82 Z M242.78 61.27 C240.493 61.27 238.64 63.124 238.64 65.41 238.64 67.696 240.493 69.55 242.78 69.55 245.066 69.55 246.92 67.696 246.92 65.41 246.92 63.124 245.066 61.27 242.78 61.27 Z" fill="#e56565" fill-opacity="1" stroke="none"/>
  <path id="Path-7" d="M325.5 77.82 C318.646 77.82 313.09 72.264 313.09 65.41 313.09 58.556 318.646 53 325.5 53 332.354 53 337.91 58.556 337.91 65.41 337.905 72.261 332.352 77.814 325.5 77.82 Z M325.5 61.27 C323.213 61.27 321.36 63.124 321.36 65.41 321.36 67.696 323.213 69.55 325.5 69.55 327.786 69.55 329.64 67.696 329.64 65.41 329.64 64.312 329.204 63.259 328.427 62.483 327.651 61.706 326.598 61.27 325.5 61.27 Z" fill="#e56565" fill-opacity="1" stroke="none"/>
  <path id="Path-8" d="M358.59 110.9 C353.57 110.9 349.044 107.875 347.124 103.237 345.203 98.598 346.267 93.26 349.818 89.711 353.37 86.163 358.709 85.104 363.346 87.027 367.983 88.951 371.004 93.48 371 98.5 370.989 105.347 365.438 110.894 358.59 110.9 Z M358.59 94.36 C356.303 94.36 354.45 96.214 354.45 98.5 354.45 100.786 356.303 102.64 358.59 102.64 360.876 102.64 362.73 100.786 362.73 98.5 362.733 97.401 362.297 96.347 361.52 95.57 360.743 94.793 359.689 94.357 358.59 94.36 Z" fill="#e56565" fill-opacity="1" stroke="none"/>
  <path id="Path-9" d="M201.42 115.04 L209.69 115.04 209.69 139.86 201.42 139.86 Z" fill="#5a9d26" fill-opacity="1" stroke="none"/>
  <path id="Path-10" d="M194 489 L293 489 293 503.86 194 503.86 Z" fill="#e56565" fill-opacity="1" stroke="none"/>
  <path id="Path-11" d="M169.54 155.19 L155.93 141.57 155.93 86.09 164.2 86.09 164.2 138.14 175.39 149.34 Z" fill="#73e558" fill-opacity="1" stroke="none"/>
  <path id="Path-12" d="M144.73 188.28 L122.84 166.39 122.84 119.18 131.11 119.18 131.11 162.96 150.58 182.43 Z" fill="#4a8824" fill-opacity="1" stroke="none"/>
  <path id="Path-13" d="M205.56 106.77 C198.71 106.754 193.169 101.19 193.18 94.34 193.191 87.49 198.75 81.945 205.6 81.95 212.45 81.956 218 87.51 218 94.36 217.989 101.221 212.421 106.775 205.56 106.77 Z M205.56 90.22 C203.884 90.216 202.372 91.222 201.728 92.769 201.084 94.316 201.436 96.098 202.619 97.284 203.802 98.47 205.584 98.826 207.132 98.186 208.68 97.546 209.69 96.035 209.69 94.36 209.69 92.078 207.842 90.226 205.56 90.22 Z" fill="#e56565" fill-opacity="1" stroke="none"/>
  <path id="Path-14" d="M160.06 77.82 C153.206 77.82 147.65 72.264 147.65 65.41 147.65 58.556 153.206 53 160.06 53 166.914 53 172.47 58.556 172.47 65.41 172.459 72.259 166.91 77.809 160.06 77.82 Z M160.06 61.27 C158.385 61.27 156.876 62.279 156.235 63.826 155.594 65.373 155.948 67.153 157.133 68.337 158.317 69.521 160.097 69.876 161.644 69.235 163.191 68.594 164.2 67.084 164.2 65.41 164.194 63.126 162.344 61.276 160.06 61.27 Z" fill="#e56565" fill-opacity="1" stroke="none"/>
  <path id="Path-15" d="M127 110.9 C121.98 110.9 117.454 107.875 115.534 103.237 113.613 98.598 114.677 93.26 118.228 89.711 121.78 86.163 127.119 85.104 131.756 87.027 136.393 88.951 139.414 93.48 139.41 98.5 139.399 105.347 133.848 110.894 127 110.9 Z M127 94.36 C125.325 94.36 123.816 95.369 123.175 96.916 122.534 98.463 122.888 100.243 124.073 101.427 125.257 102.611 127.037 102.966 128.584 102.325 130.131 101.684 131.14 100.174 131.14 98.5 131.143 97.401 130.707 96.347 129.93 95.57 129.153 94.793 128.099 94.357 127 94.36 Z" fill="#e56565" fill-opacity="1" stroke="none"/>
  <path id="Path-16" d="M226.24 251.53 C226.232 258.227 230.26 264.268 236.445 266.835 242.63 269.403 249.752 267.99 254.489 263.256 259.226 258.522 260.643 251.4 258.079 245.214 255.515 239.028 249.476 234.996 242.78 235 233.653 235.011 226.256 242.404 226.24 251.53 Z M251.05 251.53 C251.05 256.097 247.347 259.8 242.78 259.8 238.212 259.8 234.51 256.097 234.51 251.53 234.51 246.963 238.212 243.26 242.78 243.26 247.345 243.266 251.044 246.965 251.05 251.53 Z" fill="#425563" fill-opacity="1" stroke="none"/>
  <path id="Path-17" d="M287.52 230.14 L280.06 233.7 C280.68 235.03 281.25 236.38 281.74 237.77 L282.48 239.87 292.41 242.35 292.41 260.71 282.48 263.19 281.74 265.29 C281.252 266.672 280.692 268.027 280.06 269.35 L279.06 271.35 284.33 280.14 271.33 293.14 262.56 287.87 260.56 288.87 C259.236 289.501 257.881 290.065 256.5 290.56 L254.4 291.3 252 301.16 233.6 301.16 231.12 291.24 229.02 290.5 C227.639 290.005 226.284 289.441 224.96 288.81 L222.96 287.81 214.19 293.08 198.93 277.82 193.08 283.67 212.9 303.49 223.46 297.16 224.17 297.45 227.17 309.4 258.45 309.4 261.45 297.45 262.15 297.16 272.71 303.49 294.82 281.38 288.5 270.82 C288.59 270.58 288.69 270.35 288.79 270.11 L300.73 267.11 300.73 235.89 288.78 232.89 C288.37 232 288 231.05 287.52 230.14 Z" fill="#425563" fill-opacity="1" stroke="none"/>
  <path id="Path-18" d="M184.88 235.89 L184.88 267.17 196.82 270.17 C197.2 271.103 197.61 272.023 198.05 272.93 L205.5 269.36 C204.872 268.036 204.312 266.681 203.82 265.3 L203.08 263.2 193.15 260.72 193.15 242.35 203.08 239.87 203.82 237.77 C204.31 236.38 204.88 235.03 205.5 233.7 L206.5 231.7 201.23 222.93 214.23 209.93 223 215.2 225 214.2 C226.322 213.568 227.678 213.008 229.06 212.52 L231.16 211.77 233.64 201.85 252 201.85 254.49 211.77 256.58 212.52 C257.965 213.009 259.323 213.57 260.65 214.2 L262.65 215.2 271.43 209.93 286.69 225.19 292.54 219.35 272.71 199.52 262.15 205.85 261.44 205.56 258.44 193.62 227.14 193.62 224.14 205.56 223.43 205.85 212.87 199.52 190.76 221.63 197.09 232.19 C196.99 232.43 196.89 232.66 196.8 232.9 Z" fill="#425563" fill-opacity="1" stroke="none"/>
  <path id="Path-19" d="M354.43 210.5 C354.43 210.39 354.43 210.28 354.43 210.17 354.376 192.243 340.063 177.614 322.141 177.17 318.775 171.359 313.208 167.152 306.7 165.5 301.853 152.651 289.602 144.108 275.87 144 270.759 144.004 265.719 145.199 261.15 147.49 246.688 136.453 226.356 137.537 213.15 150.05 202.765 146.583 191.38 147.877 182.038 153.586 172.696 159.295 166.351 168.837 164.7 179.66 157.001 183.136 151.214 189.814 148.87 197.93 128.912 199.466 113.748 216.52 114.555 236.521 115.363 256.522 131.853 272.298 151.87 272.22 L176.69 272.22 176.69 263.95 151.79 263.95 C138.231 264.01 126.441 254.666 123.401 241.453 120.361 228.239 126.882 214.682 139.104 208.811 151.325 202.939 165.984 206.319 174.4 216.95 L180.86 211.78 C175.044 204.505 166.699 199.692 157.49 198.3 160.629 190.497 168.199 185.389 176.61 185.4 183.992 185.422 190.809 189.358 194.52 195.74 L201.67 191.6 C195.988 181.712 185.012 176.102 173.67 177.29 177.693 163.449 191.287 154.678 205.556 156.718 219.824 158.758 230.416 170.987 230.4 185.4 L238.68 185.4 C238.663 172.642 232.111 160.783 221.32 153.98 232.348 145.676 247.713 146.351 257.97 155.59 L260.27 157.65 262.9 156.03 C268.625 152.475 275.556 151.418 282.08 153.105 288.605 154.792 294.155 159.076 297.44 164.96 285.124 166.615 275.924 177.113 275.9 189.54 L284.17 189.54 C284.134 182.835 288.146 176.771 294.331 174.183 300.516 171.595 307.651 172.994 312.401 177.726 317.151 182.459 318.576 189.589 316.01 195.783 313.444 201.978 307.395 206.012 300.69 206 L300.69 214.28 C314.389 214.263 325.489 203.159 325.5 189.46 325.49 188.184 325.383 186.91 325.18 185.65 336.121 187.347 344.614 196.085 346 207.07 331.876 203.427 317.042 209.537 309.58 222.07 L316.67 226.33 C322.848 216.055 335.489 211.665 346.706 215.899 357.923 220.133 364.51 231.78 362.358 243.575 360.205 255.37 349.929 263.94 337.94 263.94 L309 263.94 309 272.21 338 272.21 C352.974 272.221 366.086 262.164 369.959 247.699 373.831 233.234 367.497 217.972 354.52 210.5 Z" fill="#425563" fill-opacity="1" stroke="none"/>
  <path id="Path-20" d="M333.78 239.12 L342.05 239.12 342.05 247.39 333.78 247.39 Z" fill="#425563" fill-opacity="1" stroke="none"/>
  <path id="Path-21" d="M238.65 218.44 L238.65 218.73 C221.589 220.877 209.02 235.74 209.737 252.921 210.455 270.101 224.219 283.865 241.399 284.583 258.58 285.3 273.443 272.731 275.59 255.67 L275.87 255.67 275.87 247.39 275.59 247.39 C273.675 232.422 261.888 220.64 246.92 218.73 L246.92 218.44 Z M267.65 251.53 C267.65 261.569 261.603 270.619 252.328 274.461 243.053 278.302 232.378 276.179 225.279 269.08 218.181 261.982 216.057 251.307 219.899 242.032 223.741 232.757 232.791 226.71 242.83 226.71 256.513 226.749 267.589 237.846 267.6 251.53 Z" fill="#425563" fill-opacity="1" stroke="none"/>
  <path id="Path-22" d="M147.65 243.26 L155.92 243.26 155.92 251.53 147.65 251.53 Z" fill="#425563" fill-opacity="1" stroke="none"/>
  <path id="Path-23" d="M209.69 172.95 L217.96 172.95 217.96 181.22 209.69 181.22 Z" fill="#425563" fill-opacity="1" stroke="none"/>
  <path id="Path-24" d="M259.33 168.81 L267.6 168.81 267.6 177.08 259.33 177.08 Z" fill="#425563" fill-opacity="1" stroke="none"/>
  <path id="Path-25" d="M171 435.94 C149.042 435.94 129.246 422.713 120.843 402.426 112.439 382.139 117.084 358.788 132.611 343.261 148.138 327.734 171.489 323.089 191.776 331.493 212.063 339.896 225.29 359.692 225.29 381.65 225.259 411.616 200.974 435.905 171.004 435.94 Z M171 342.87 C155.315 342.87 141.174 352.318 135.172 366.81 129.169 381.301 132.487 397.981 143.578 409.072 154.669 420.163 171.349 423.48 185.84 417.478 200.332 411.476 209.78 397.335 209.78 381.65 209.753 360.245 192.408 342.898 171.002 342.87 Z" fill="#e56565" fill-opacity="1" stroke="none"/>
  <path id="Path-26" d="M310.6 435.94 C288.642 435.94 268.846 422.713 260.443 402.426 252.039 382.139 256.684 358.788 272.211 343.261 287.738 327.734 311.089 323.089 331.376 331.493 351.663 339.896 364.89 359.692 364.89 381.65 364.859 411.616 340.573 435.905 310.604 435.94 Z M310.6 342.87 C294.915 342.87 280.774 352.318 274.772 366.81 268.769 381.301 272.087 397.981 283.178 409.072 294.269 420.163 310.949 423.48 325.44 417.478 339.932 411.476 349.38 397.335 349.38 381.65 349.353 360.245 332.008 342.898 310.602 342.87 Z" fill="#e56565" fill-opacity="1" stroke="none"/>
  <path id="Path-27" d="M240.8 311.85 C317.88 311.85 395.91 295.85 395.91 265.31 395.91 256.21 384.4 245.8 365.98 239.86 L365.98 254.86 C376.89 257.16 380.64 262.54 380.64 264.56 380.64 275.08 331.12 296.31 240.8 296.31 150.48 296.31 101.2 275.81 101.2 265.31 101.2 263.31 103.62 257.56 118.81 251.9 L118.81 237.52 C97 243 85.69 256.21 85.69 265.31 85.69 295.86 163.72 311.85 240.8 311.85 Z" fill="#4a6789" fill-opacity="1" stroke="none"/>
  <path id="Path-28" d="M147.73 381.65 C147.73 391.062 153.399 399.547 162.095 403.149 170.79 406.75 180.799 404.76 187.454 398.104 194.109 391.449 196.1 381.44 192.499 372.745 188.897 364.05 180.412 358.38 171 358.38 158.155 358.397 147.746 368.805 147.73 381.65 Z M178.73 381.65 C178.73 384.79 176.838 387.62 173.937 388.82 171.036 390.021 167.698 389.355 165.479 387.134 163.261 384.912 162.599 381.573 163.803 378.673 165.008 375.774 167.84 373.886 170.98 373.89 173.04 373.887 175.016 374.704 176.473 376.159 177.931 377.615 178.75 379.59 178.75 381.65 Z" fill="#5290dd" fill-opacity="1" stroke="none"/>
  <path id="Path-29" d="M287.33 381.65 C287.33 391.062 292.999 399.547 301.695 403.149 310.39 406.75 320.399 404.76 327.054 398.104 333.709 391.449 335.7 381.44 332.099 372.745 328.497 364.05 320.012 358.38 310.6 358.38 297.755 358.397 287.346 368.805 287.33 381.65 Z M318.33 381.65 C318.33 385.936 314.856 389.41 310.57 389.41 306.284 389.41 302.81 385.936 302.81 381.65 302.81 377.364 306.284 373.89 310.57 373.89 312.632 373.885 314.612 374.7 316.073 376.155 317.535 377.611 318.357 379.588 318.36 381.65 Z" fill="#5290dd" fill-opacity="1" stroke="none"/>
  <path id="Path-30" d="M444.999 336.001 C435.02 324.63 412.936 306.541 397.928 304.632 L397.928 296.342 388.588 296.342 C386.952 296.339 385.383 296.987 384.225 298.143 383.068 299.298 382.418 300.867 382.418 302.502 L382.418 406.502 C382.495 433.256 371.861 458.929 352.888 477.792 L305.228 525.402 C297.976 532.7 288.105 536.791 277.818 536.762 L207.818 536.762 C197.53 536.788 187.658 532.702 180.398 525.412 L132.758 477.772 C113.786 458.904 103.152 433.229 103.228 406.472 L103.228 301.722 C103.228 300.294 102.66 298.924 101.648 297.914 100.637 296.905 99.266 296.339 97.838 296.342 L87.688 296.342 87.688 304.632 C72.677 306.525 58.88 313.854 48.908 325.232 L33 340 33.398 366.112 C33.427 398.144 57.807 424.901 89.698 427.902 93.955 450.968 105.138 472.19 121.758 488.742 L169.388 536.372 C179.57 546.553 193.379 552.272 207.778 552.272 L277.778 552.272 C292.185 552.312 306.009 546.588 316.168 536.372 L363.808 488.742 C380.424 472.189 391.604 450.967 395.858 427.902 427.741 424.907 452.123 398.166 452.168 366.142 Z M45.999 366.001 C46.039 343.317 65.323 324.101 87.688 320.302 L87.688 358.382 66.598 358.382 C65.392 358.388 64.418 359.367 64.418 360.572 L64.418 371.712 C64.423 372.914 65.396 373.887 66.598 373.892 L87.688 373.892 87.999 411.001 C87.999 412.871 55.909 391.161 55.999 393.001 Z M397.638 412.002 C397.728 410.162 397.908 408.332 397.908 406.462 L397.908 373.892 418.778 373.892 C419.415 373.895 420.027 373.643 420.478 373.192 420.928 372.741 421.18 372.13 421.178 371.492 L421.178 360.782 C421.178 359.457 420.103 358.382 418.778 358.382 L397.908 358.382 397.908 320.302 C420.353 324.058 436.776 343.515 436.708 366.272 436.641 389.029 420.104 408.389 397.638 412.012 Z" fill="#4a6789" fill-opacity="1" stroke="none"/>
 </g>
 <defs>
  <text id="string" transform="matrix(1.0 0.0 0.0 1.0 479.25262944987 -30.0)" x="1.0" text-decoration="none" y="564.0" font-size="600" fill="#4a6789" font-family="Phosphate-Inline, Phosphate">AI-DASH</text>
 </defs>
 <use id="AI-DASH" xlink:href="#string"/>
</svg>
