<?xml version="1.0" encoding="UTF-8"?>
<svg width="1100px" height="600px" viewBox="0 0 1100 600" xmlns="http://www.w3.org/2000/svg" xmlns:xlink="http://www.w3.org/1999/xlink" version="1.1">
 <!-- Generated by Pixelmator Pro 1.5.3 -->
 <g id="Intelligent_Alerting">
  <path id="Path" d="M287.58 222.28 L270 204.74 260.36 210.52 C258.903 209.826 257.411 209.208 255.89 208.67 L253.16 197.76 228.37 197.76 225.65 208.67 C224.129 209.208 222.636 209.826 221.18 210.52 L211.54 204.74 194 222.28 199.78 231.93 C199.085 233.387 198.468 234.879 197.93 236.4 L187 239.12 187 263.94 197.91 266.66 C198.448 268.185 199.065 269.68 199.76 271.14 L194 280.78 211.55 298.33 221.19 292.54 C222.645 293.239 224.137 293.856 225.66 294.39 L228.38 305.3 253.2 305.3 255.93 294.39 C257.451 293.852 258.943 293.234 260.4 292.54 L270.04 298.33 287.59 280.78 281.8 271.14 C282.503 269.684 283.12 268.188 283.65 266.66 L294.56 263.94 294.56 239.12 283.65 236.4 C283.112 234.879 282.494 233.387 281.8 231.93 Z" fill="#87ceee" fill-opacity="1" stroke="none"/>
  <path id="Path-1" d="M273.87 115.04 L282.14 115.04 282.14 135.72 273.87 135.72 Z" fill="#5a9d26" fill-opacity="1" stroke="none"/>
  <path id="Path-2" d="M314.02 155.19 L308.17 149.34 319.37 138.14 319.37 86.09 327.64 86.09 327.64 141.57 Z" fill="#73e558" fill-opacity="1" stroke="none"/>
  <path id="Path-3" d="M347.11 180.01 L341.26 174.16 352.46 162.96 352.46 119.18 360.73 119.18 360.73 166.39 Z" fill="#4a8824" fill-opacity="1" stroke="none"/>
  <path id="Path-4" d="M278 106.77 C272.98 106.774 268.452 103.753 266.527 99.116 264.604 94.479 265.663 89.14 269.211 85.588 272.76 82.037 278.098 80.974 282.737 82.894 287.375 84.814 290.4 89.34 290.4 94.36 290.389 101.205 284.846 106.753 278 106.77 Z M278 90.22 C276.325 90.216 274.812 91.222 274.168 92.769 273.524 94.316 273.876 96.098 275.059 97.284 276.242 98.47 278.024 98.826 279.572 98.186 281.12 97.546 282.13 96.035 282.13 94.36 282.13 92.078 280.282 90.226 278 90.22 Z" fill="#e56565" fill-opacity="1" stroke="none"/>
  <path id="Path-5" d="M236.65 86.09 L244.92 86.09 244.92 131.59 236.65 131.59 Z" fill="#4a8824" fill-opacity="1" stroke="none"/>
  <path id="Path-6" d="M240.78 77.82 C233.926 77.82 228.37 72.264 228.37 65.41 228.37 58.556 233.926 53 240.78 53 247.634 53 253.19 58.556 253.19 65.41 253.179 72.259 247.629 77.809 240.78 77.82 Z M240.78 61.27 C238.493 61.27 236.64 63.124 236.64 65.41 236.64 67.696 238.493 69.55 240.78 69.55 243.066 69.55 244.92 67.696 244.92 65.41 244.92 63.124 243.066 61.27 240.78 61.27 Z" fill="#e56565" fill-opacity="1" stroke="none"/>
  <path id="Path-7" d="M323.5 77.82 C316.646 77.82 311.09 72.264 311.09 65.41 311.09 58.556 316.646 53 323.5 53 330.354 53 335.91 58.556 335.91 65.41 335.905 72.261 330.352 77.814 323.5 77.82 Z M323.5 61.27 C321.213 61.27 319.36 63.124 319.36 65.41 319.36 67.696 321.213 69.55 323.5 69.55 325.786 69.55 327.64 67.696 327.64 65.41 327.64 64.312 327.204 63.259 326.427 62.483 325.651 61.706 324.598 61.27 323.5 61.27 Z" fill="#e56565" fill-opacity="1" stroke="none"/>
  <path id="Path-8" d="M356.59 110.9 C351.57 110.9 347.044 107.875 345.124 103.237 343.203 98.598 344.267 93.26 347.818 89.711 351.37 86.163 356.709 85.104 361.346 87.027 365.983 88.951 369.004 93.48 369 98.5 368.989 105.347 363.438 110.894 356.59 110.9 Z M356.59 94.36 C354.303 94.36 352.45 96.214 352.45 98.5 352.45 100.786 354.303 102.64 356.59 102.64 358.876 102.64 360.73 100.786 360.73 98.5 360.733 97.401 360.297 96.347 359.52 95.57 358.743 94.793 357.689 94.357 356.59 94.36 Z" fill="#e56565" fill-opacity="1" stroke="none"/>
  <path id="Path-9" d="M199.42 115.04 L207.69 115.04 207.69 139.86 199.42 139.86 Z" fill="#5a9d26" fill-opacity="1" stroke="none"/>
  <path id="Path-10" d="M192 489 L291 489 291 503.86 192 503.86 Z" fill="#e56565" fill-opacity="1" stroke="none"/>
  <path id="Path-11" d="M167.54 155.19 L153.93 141.57 153.93 86.09 162.2 86.09 162.2 138.14 173.39 149.34 Z" fill="#73e558" fill-opacity="1" stroke="none"/>
  <path id="Path-12" d="M142.73 188.28 L120.84 166.39 120.84 119.18 129.11 119.18 129.11 162.96 148.58 182.43 Z" fill="#4a8824" fill-opacity="1" stroke="none"/>
  <path id="Path-13" d="M203.56 106.77 C196.71 106.754 191.169 101.19 191.18 94.34 191.191 87.49 196.75 81.945 203.6 81.95 210.45 81.956 216 87.51 216 94.36 215.989 101.221 210.421 106.775 203.56 106.77 Z M203.56 90.22 C201.884 90.216 200.372 91.222 199.728 92.769 199.084 94.316 199.436 96.098 200.619 97.284 201.802 98.47 203.584 98.826 205.132 98.186 206.68 97.546 207.69 96.035 207.69 94.36 207.69 92.078 205.842 90.226 203.56 90.22 Z" fill="#e56565" fill-opacity="1" stroke="none"/>
  <path id="Path-14" d="M158.06 77.82 C151.206 77.82 145.65 72.264 145.65 65.41 145.65 58.556 151.206 53 158.06 53 164.914 53 170.47 58.556 170.47 65.41 170.459 72.259 164.91 77.809 158.06 77.82 Z M158.06 61.27 C156.385 61.27 154.876 62.279 154.235 63.826 153.594 65.373 153.948 67.153 155.133 68.337 156.317 69.521 158.097 69.876 159.644 69.235 161.191 68.594 162.2 67.084 162.2 65.41 162.194 63.126 160.344 61.276 158.06 61.27 Z" fill="#e56565" fill-opacity="1" stroke="none"/>
  <path id="Path-15" d="M125 110.9 C119.98 110.9 115.454 107.875 113.534 103.237 111.613 98.598 112.677 93.26 116.228 89.711 119.78 86.163 125.119 85.104 129.756 87.027 134.393 88.951 137.414 93.48 137.41 98.5 137.399 105.347 131.848 110.894 125 110.9 Z M125 94.36 C123.325 94.36 121.816 95.369 121.175 96.916 120.534 98.463 120.888 100.243 122.073 101.427 123.257 102.611 125.037 102.966 126.584 102.325 128.131 101.684 129.14 100.174 129.14 98.5 129.143 97.401 128.707 96.347 127.93 95.57 127.153 94.793 126.099 94.357 125 94.36 Z" fill="#e56565" fill-opacity="1" stroke="none"/>
  <path id="Path-16" d="M224.24 251.53 C224.232 258.227 228.26 264.268 234.445 266.835 240.63 269.403 247.752 267.99 252.489 263.256 257.226 258.522 258.643 251.4 256.079 245.214 253.515 239.028 247.476 234.996 240.78 235 231.653 235.011 224.256 242.404 224.24 251.53 Z M249.05 251.53 C249.05 256.097 245.347 259.8 240.78 259.8 236.212 259.8 232.51 256.097 232.51 251.53 232.51 246.963 236.212 243.26 240.78 243.26 245.345 243.266 249.044 246.965 249.05 251.53 Z" fill="#425563" fill-opacity="1" stroke="none"/>
  <path id="Path-17" d="M285.52 230.14 L278.06 233.7 C278.68 235.03 279.25 236.38 279.74 237.77 L280.48 239.87 290.41 242.35 290.41 260.71 280.48 263.19 279.74 265.29 C279.252 266.672 278.692 268.027 278.06 269.35 L277.06 271.35 282.33 280.14 269.33 293.14 260.56 287.87 258.56 288.87 C257.236 289.501 255.881 290.065 254.5 290.56 L252.4 291.3 250 301.16 231.6 301.16 229.12 291.24 227.02 290.5 C225.639 290.005 224.284 289.441 222.96 288.81 L220.96 287.81 212.19 293.08 196.93 277.82 191.08 283.67 210.9 303.49 221.46 297.16 222.17 297.45 225.17 309.4 256.45 309.4 259.45 297.45 260.15 297.16 270.71 303.49 292.82 281.38 286.5 270.82 C286.59 270.58 286.69 270.35 286.79 270.11 L298.73 267.11 298.73 235.89 286.78 232.89 C286.37 232 286 231.05 285.52 230.14 Z" fill="#425563" fill-opacity="1" stroke="none"/>
  <path id="Path-18" d="M182.88 235.89 L182.88 267.17 194.82 270.17 C195.2 271.103 195.61 272.023 196.05 272.93 L203.5 269.36 C202.872 268.036 202.312 266.681 201.82 265.3 L201.08 263.2 191.15 260.72 191.15 242.35 201.08 239.87 201.82 237.77 C202.31 236.38 202.88 235.03 203.5 233.7 L204.5 231.7 199.23 222.93 212.23 209.93 221 215.2 223 214.2 C224.322 213.568 225.678 213.008 227.06 212.52 L229.16 211.77 231.64 201.85 250 201.85 252.49 211.77 254.58 212.52 C255.965 213.009 257.323 213.57 258.65 214.2 L260.65 215.2 269.43 209.93 284.69 225.19 290.54 219.35 270.71 199.52 260.15 205.85 259.44 205.56 256.44 193.62 225.14 193.62 222.14 205.56 221.43 205.85 210.87 199.52 188.76 221.63 195.09 232.19 C194.99 232.43 194.89 232.66 194.8 232.9 Z" fill="#425563" fill-opacity="1" stroke="none"/>
  <path id="Path-19" d="M352.43 210.5 C352.43 210.39 352.43 210.28 352.43 210.17 352.376 192.243 338.063 177.614 320.141 177.17 316.775 171.359 311.208 167.152 304.7 165.5 299.853 152.651 287.602 144.108 273.87 144 268.759 144.004 263.719 145.199 259.15 147.49 244.688 136.453 224.356 137.537 211.15 150.05 200.765 146.583 189.38 147.877 180.038 153.586 170.696 159.295 164.351 168.837 162.7 179.66 155.001 183.136 149.214 189.814 146.87 197.93 126.912 199.466 111.748 216.52 112.555 236.521 113.363 256.522 129.853 272.298 149.87 272.22 L174.69 272.22 174.69 263.95 149.79 263.95 C136.231 264.01 124.441 254.666 121.401 241.453 118.361 228.239 124.882 214.682 137.104 208.811 149.325 202.939 163.984 206.319 172.4 216.95 L178.86 211.78 C173.044 204.505 164.699 199.692 155.49 198.3 158.629 190.497 166.199 185.389 174.61 185.4 181.992 185.422 188.809 189.358 192.52 195.74 L199.67 191.6 C193.988 181.712 183.012 176.102 171.67 177.29 175.693 163.449 189.287 154.678 203.556 156.718 217.824 158.758 228.416 170.987 228.4 185.4 L236.68 185.4 C236.663 172.642 230.111 160.783 219.32 153.98 230.348 145.676 245.713 146.351 255.97 155.59 L258.27 157.65 260.9 156.03 C266.625 152.475 273.556 151.418 280.08 153.105 286.605 154.792 292.155 159.076 295.44 164.96 283.124 166.615 273.924 177.113 273.9 189.54 L282.17 189.54 C282.134 182.835 286.146 176.771 292.331 174.183 298.516 171.595 305.651 172.994 310.401 177.726 315.151 182.459 316.576 189.589 314.01 195.783 311.444 201.978 305.395 206.012 298.69 206 L298.69 214.28 C312.389 214.263 323.489 203.159 323.5 189.46 323.49 188.184 323.383 186.91 323.18 185.65 334.121 187.347 342.614 196.085 344 207.07 329.876 203.427 315.042 209.537 307.58 222.07 L314.67 226.33 C320.848 216.055 333.489 211.665 344.706 215.899 355.923 220.133 362.51 231.78 360.358 243.575 358.205 255.37 347.929 263.94 335.94 263.94 L307 263.94 307 272.21 336 272.21 C350.974 272.221 364.086 262.164 367.959 247.699 371.831 233.234 365.497 217.972 352.52 210.5 Z" fill="#425563" fill-opacity="1" stroke="none"/>
  <path id="Path-20" d="M331.78 239.12 L340.05 239.12 340.05 247.39 331.78 247.39 Z" fill="#425563" fill-opacity="1" stroke="none"/>
  <path id="Path-21" d="M236.65 218.44 L236.65 218.73 C219.589 220.877 207.02 235.74 207.737 252.921 208.455 270.101 222.219 283.865 239.399 284.583 256.58 285.3 271.443 272.731 273.59 255.67 L273.87 255.67 273.87 247.39 273.59 247.39 C271.675 232.422 259.888 220.64 244.92 218.73 L244.92 218.44 Z M265.65 251.53 C265.65 261.569 259.603 270.619 250.328 274.461 241.053 278.302 230.378 276.179 223.279 269.08 216.181 261.982 214.057 251.307 217.899 242.032 221.741 232.757 230.791 226.71 240.83 226.71 254.513 226.749 265.589 237.846 265.6 251.53 Z" fill="#425563" fill-opacity="1" stroke="none"/>
  <path id="Path-22" d="M145.65 243.26 L153.92 243.26 153.92 251.53 145.65 251.53 Z" fill="#425563" fill-opacity="1" stroke="none"/>
  <path id="Path-23" d="M207.69 172.95 L215.96 172.95 215.96 181.22 207.69 181.22 Z" fill="#425563" fill-opacity="1" stroke="none"/>
  <path id="Path-24" d="M257.33 168.81 L265.6 168.81 265.6 177.08 257.33 177.08 Z" fill="#425563" fill-opacity="1" stroke="none"/>
  <path id="Path-25" d="M169 435.94 C147.042 435.94 127.246 422.713 118.843 402.426 110.439 382.139 115.084 358.788 130.611 343.261 146.138 327.734 169.489 323.089 189.776 331.493 210.063 339.896 223.29 359.692 223.29 381.65 223.259 411.616 198.974 435.905 169.004 435.94 Z M169 342.87 C153.315 342.87 139.174 352.318 133.172 366.81 127.169 381.301 130.487 397.981 141.578 409.072 152.669 420.163 169.349 423.48 183.84 417.478 198.332 411.476 207.78 397.335 207.78 381.65 207.753 360.245 190.408 342.898 169.002 342.87 Z" fill="#e56565" fill-opacity="1" stroke="none"/>
  <path id="Path-26" d="M308.6 435.94 C286.642 435.94 266.846 422.713 258.443 402.426 250.039 382.139 254.684 358.788 270.211 343.261 285.738 327.734 309.089 323.089 329.376 331.493 349.663 339.896 362.89 359.692 362.89 381.65 362.859 411.616 338.573 435.905 308.604 435.94 Z M308.6 342.87 C292.915 342.87 278.774 352.318 272.772 366.81 266.769 381.301 270.087 397.981 281.178 409.072 292.269 420.163 308.949 423.48 323.44 417.478 337.932 411.476 347.38 397.335 347.38 381.65 347.353 360.245 330.008 342.898 308.602 342.87 Z" fill="#e56565" fill-opacity="1" stroke="none"/>
  <path id="Path-27" d="M238.8 311.85 C315.88 311.85 393.91 295.85 393.91 265.31 393.91 256.21 382.4 245.8 363.98 239.86 L363.98 254.86 C374.89 257.16 378.64 262.54 378.64 264.56 378.64 275.08 329.12 296.31 238.8 296.31 148.48 296.31 99.2 275.81 99.2 265.31 99.2 263.31 101.62 257.56 116.81 251.9 L116.81 237.52 C95 243 83.69 256.21 83.69 265.31 83.69 295.86 161.72 311.85 238.8 311.85 Z" fill="#4a6789" fill-opacity="1" stroke="none"/>
  <path id="Path-28" d="M145.73 381.65 C145.73 391.062 151.399 399.547 160.095 403.149 168.79 406.75 178.799 404.76 185.454 398.104 192.109 391.449 194.1 381.44 190.499 372.745 186.897 364.05 178.412 358.38 169 358.38 156.155 358.397 145.746 368.805 145.73 381.65 Z M176.73 381.65 C176.73 384.79 174.838 387.62 171.937 388.82 169.036 390.021 165.698 389.355 163.479 387.134 161.261 384.912 160.599 381.573 161.803 378.673 163.008 375.774 165.84 373.886 168.98 373.89 171.04 373.887 173.016 374.704 174.473 376.159 175.931 377.615 176.75 379.59 176.75 381.65 Z" fill="#5290dd" fill-opacity="1" stroke="none"/>
  <path id="Path-29" d="M285.33 381.65 C285.33 391.062 290.999 399.547 299.695 403.149 308.39 406.75 318.399 404.76 325.054 398.104 331.709 391.449 333.7 381.44 330.099 372.745 326.497 364.05 318.012 358.38 308.6 358.38 295.755 358.397 285.346 368.805 285.33 381.65 Z M316.33 381.65 C316.33 385.936 312.856 389.41 308.57 389.41 304.284 389.41 300.81 385.936 300.81 381.65 300.81 377.364 304.284 373.89 308.57 373.89 310.632 373.885 312.612 374.7 314.073 376.155 315.535 377.611 316.357 379.588 316.36 381.65 Z" fill="#5290dd" fill-opacity="1" stroke="none"/>
  <path id="Path-30" d="M442.999 336.001 C433.02 324.63 410.936 306.541 395.928 304.632 L395.928 296.342 386.588 296.342 C384.952 296.339 383.383 296.987 382.225 298.143 381.068 299.298 380.418 300.867 380.418 302.502 L380.418 406.502 C380.495 433.256 369.861 458.929 350.888 477.792 L303.228 525.402 C295.976 532.7 286.105 536.791 275.818 536.762 L205.818 536.762 C195.53 536.788 185.658 532.702 178.398 525.412 L130.758 477.772 C111.786 458.904 101.152 433.229 101.228 406.472 L101.228 301.722 C101.228 300.294 100.66 298.924 99.648 297.914 98.637 296.905 97.266 296.339 95.838 296.342 L85.688 296.342 85.688 304.632 C70.677 306.525 56.88 313.854 46.908 325.232 L31 340 31.398 366.112 C31.427 398.144 55.807 424.901 87.698 427.902 91.955 450.968 103.138 472.19 119.758 488.742 L167.388 536.372 C177.57 546.553 191.379 552.272 205.778 552.272 L275.778 552.272 C290.185 552.312 304.009 546.588 314.168 536.372 L361.808 488.742 C378.424 472.189 389.604 450.967 393.858 427.902 425.741 424.907 450.123 398.166 450.168 366.142 Z M43.999 366.001 C44.039 343.317 63.323 324.101 85.688 320.302 L85.688 358.382 64.598 358.382 C63.392 358.388 62.418 359.367 62.418 360.572 L62.418 371.712 C62.423 372.914 63.396 373.887 64.598 373.892 L85.688 373.892 85.999 411.001 C85.999 412.871 53.909 391.161 53.999 393.001 Z M395.638 412.002 C395.728 410.162 395.908 408.332 395.908 406.462 L395.908 373.892 416.778 373.892 C417.415 373.895 418.027 373.643 418.478 373.192 418.928 372.741 419.18 372.13 419.178 371.492 L419.178 360.782 C419.178 359.457 418.103 358.382 416.778 358.382 L395.908 358.382 395.908 320.302 C418.353 324.058 434.776 343.515 434.708 366.272 434.641 389.029 418.104 408.389 395.638 412.012 Z" fill="#4a6789" fill-opacity="1" stroke="none"/>
 </g>
 <defs>
  <text id="string" transform="matrix(1.0 0.0 0.0 1.0 517.12634277344 -14.0)" y="564.0" font-size="600" x="1.0" text-decoration="none" font-family="Phosphate-Inline, Phosphate">AI</text>
 </defs>
 <use id="AI" xlink:href="#string" fill="#4a6789" fill-opacity="1" stroke="none"/>
</svg>
