<?xml version="1.0" encoding="UTF-8"?>
<svg width="2200px" height="600px" viewBox="0 0 2200 600" xmlns="http://www.w3.org/2000/svg" xmlns:xlink="http://www.w3.org/1999/xlink" version="1.1">
 <!-- Generated by Pixelmator Pro 1.5.3 -->
 <g id="Intelligent_Alerting">
  <path id="Path" d="M321.58 222.28 L304 204.74 294.36 210.52 C292.903 209.826 291.411 209.208 289.89 208.67 L287.16 197.76 262.37 197.76 259.65 208.67 C258.129 209.208 256.636 209.826 255.18 210.52 L245.54 204.74 228 222.28 233.78 231.93 C233.085 233.387 232.468 234.879 231.93 236.4 L221 239.12 221 263.94 231.91 266.66 C232.448 268.185 233.065 269.68 233.76 271.14 L228 280.78 245.55 298.33 255.19 292.54 C256.645 293.239 258.137 293.856 259.66 294.39 L262.38 305.3 287.2 305.3 289.93 294.39 C291.451 293.852 292.943 293.234 294.4 292.54 L304.04 298.33 321.59 280.78 315.8 271.14 C316.503 269.684 317.12 268.188 317.65 266.66 L328.56 263.94 328.56 239.12 317.65 236.4 C317.112 234.879 316.494 233.387 315.8 231.93 Z" fill="#87ceee" fill-opacity="1" stroke="none"/>
  <path id="Path-1" d="M307.87 115.04 L316.14 115.04 316.14 135.72 307.87 135.72 Z" fill="#5a9d26" fill-opacity="1" stroke="none"/>
  <path id="Path-2" d="M348.02 155.19 L342.17 149.34 353.37 138.14 353.37 86.09 361.64 86.09 361.64 141.57 Z" fill="#73e558" fill-opacity="1" stroke="none"/>
  <path id="Path-3" d="M381.11 180.01 L375.26 174.16 386.46 162.96 386.46 119.18 394.73 119.18 394.73 166.39 Z" fill="#4a8824" fill-opacity="1" stroke="none"/>
  <path id="Path-4" d="M312 106.77 C306.98 106.774 302.452 103.753 300.527 99.116 298.604 94.479 299.663 89.14 303.211 85.588 306.76 82.037 312.098 80.974 316.737 82.894 321.375 84.814 324.4 89.34 324.4 94.36 324.389 101.205 318.846 106.753 312 106.77 Z M312 90.22 C310.325 90.216 308.812 91.222 308.168 92.769 307.524 94.316 307.876 96.098 309.059 97.284 310.242 98.47 312.024 98.826 313.572 98.186 315.12 97.546 316.13 96.035 316.13 94.36 316.13 92.078 314.282 90.226 312 90.22 Z" fill="#e56565" fill-opacity="1" stroke="none"/>
  <path id="Path-5" d="M270.65 86.09 L278.92 86.09 278.92 131.59 270.65 131.59 Z" fill="#4a8824" fill-opacity="1" stroke="none"/>
  <path id="Path-6" d="M274.78 77.82 C267.926 77.82 262.37 72.264 262.37 65.41 262.37 58.556 267.926 53 274.78 53 281.634 53 287.19 58.556 287.19 65.41 287.179 72.259 281.629 77.809 274.78 77.82 Z M274.78 61.27 C272.493 61.27 270.64 63.124 270.64 65.41 270.64 67.696 272.493 69.55 274.78 69.55 277.066 69.55 278.92 67.696 278.92 65.41 278.92 63.124 277.066 61.27 274.78 61.27 Z" fill="#e56565" fill-opacity="1" stroke="none"/>
  <path id="Path-7" d="M357.5 77.82 C350.646 77.82 345.09 72.264 345.09 65.41 345.09 58.556 350.646 53 357.5 53 364.354 53 369.91 58.556 369.91 65.41 369.905 72.261 364.352 77.814 357.5 77.82 Z M357.5 61.27 C355.213 61.27 353.36 63.124 353.36 65.41 353.36 67.696 355.213 69.55 357.5 69.55 359.786 69.55 361.64 67.696 361.64 65.41 361.64 64.312 361.204 63.259 360.427 62.483 359.651 61.706 358.598 61.27 357.5 61.27 Z" fill="#e56565" fill-opacity="1" stroke="none"/>
  <path id="Path-8" d="M390.59 110.9 C385.57 110.9 381.044 107.875 379.124 103.237 377.203 98.598 378.267 93.26 381.818 89.711 385.37 86.163 390.709 85.104 395.346 87.027 399.983 88.951 403.004 93.48 403 98.5 402.989 105.347 397.438 110.894 390.59 110.9 Z M390.59 94.36 C388.303 94.36 386.45 96.214 386.45 98.5 386.45 100.786 388.303 102.64 390.59 102.64 392.876 102.64 394.73 100.786 394.73 98.5 394.733 97.401 394.297 96.347 393.52 95.57 392.743 94.793 391.689 94.357 390.59 94.36 Z" fill="#e56565" fill-opacity="1" stroke="none"/>
  <path id="Path-9" d="M233.42 115.04 L241.69 115.04 241.69 139.86 233.42 139.86 Z" fill="#5a9d26" fill-opacity="1" stroke="none"/>
  <path id="Path-10" d="M226 489 L325 489 325 503.86 226 503.86 Z" fill="#e56565" fill-opacity="1" stroke="none"/>
  <path id="Path-11" d="M201.54 155.19 L187.93 141.57 187.93 86.09 196.2 86.09 196.2 138.14 207.39 149.34 Z" fill="#73e558" fill-opacity="1" stroke="none"/>
  <path id="Path-12" d="M176.73 188.28 L154.84 166.39 154.84 119.18 163.11 119.18 163.11 162.96 182.58 182.43 Z" fill="#4a8824" fill-opacity="1" stroke="none"/>
  <path id="Path-13" d="M237.56 106.77 C230.71 106.754 225.169 101.19 225.18 94.34 225.191 87.49 230.75 81.945 237.6 81.95 244.45 81.956 250 87.51 250 94.36 249.989 101.221 244.421 106.775 237.56 106.77 Z M237.56 90.22 C235.884 90.216 234.372 91.222 233.728 92.769 233.084 94.316 233.436 96.098 234.619 97.284 235.802 98.47 237.584 98.826 239.132 98.186 240.68 97.546 241.69 96.035 241.69 94.36 241.69 92.078 239.842 90.226 237.56 90.22 Z" fill="#e56565" fill-opacity="1" stroke="none"/>
  <path id="Path-14" d="M192.06 77.82 C185.206 77.82 179.65 72.264 179.65 65.41 179.65 58.556 185.206 53 192.06 53 198.914 53 204.47 58.556 204.47 65.41 204.459 72.259 198.91 77.809 192.06 77.82 Z M192.06 61.27 C190.385 61.27 188.876 62.279 188.235 63.826 187.594 65.373 187.948 67.153 189.133 68.337 190.317 69.521 192.097 69.876 193.644 69.235 195.191 68.594 196.2 67.084 196.2 65.41 196.194 63.126 194.344 61.276 192.06 61.27 Z" fill="#e56565" fill-opacity="1" stroke="none"/>
  <path id="Path-15" d="M159 110.9 C153.98 110.9 149.454 107.875 147.534 103.237 145.613 98.598 146.677 93.26 150.228 89.711 153.78 86.163 159.119 85.104 163.756 87.027 168.393 88.951 171.414 93.48 171.41 98.5 171.399 105.347 165.848 110.894 159 110.9 Z M159 94.36 C157.325 94.36 155.816 95.369 155.175 96.916 154.534 98.463 154.888 100.243 156.073 101.427 157.257 102.611 159.037 102.966 160.584 102.325 162.131 101.684 163.14 100.174 163.14 98.5 163.143 97.401 162.707 96.347 161.93 95.57 161.153 94.793 160.099 94.357 159 94.36 Z" fill="#e56565" fill-opacity="1" stroke="none"/>
  <path id="Path-16" d="M258.24 251.53 C258.232 258.227 262.26 264.268 268.445 266.835 274.63 269.403 281.752 267.99 286.489 263.256 291.226 258.522 292.643 251.4 290.079 245.214 287.515 239.028 281.476 234.996 274.78 235 265.653 235.011 258.256 242.404 258.24 251.53 Z M283.05 251.53 C283.05 256.097 279.347 259.8 274.78 259.8 270.212 259.8 266.51 256.097 266.51 251.53 266.51 246.963 270.212 243.26 274.78 243.26 279.345 243.266 283.044 246.965 283.05 251.53 Z" fill="#425563" fill-opacity="1" stroke="none"/>
  <path id="Path-17" d="M319.52 230.14 L312.06 233.7 C312.68 235.03 313.25 236.38 313.74 237.77 L314.48 239.87 324.41 242.35 324.41 260.71 314.48 263.19 313.74 265.29 C313.252 266.672 312.692 268.027 312.06 269.35 L311.06 271.35 316.33 280.14 303.33 293.14 294.56 287.87 292.56 288.87 C291.236 289.501 289.881 290.065 288.5 290.56 L286.4 291.3 284 301.16 265.6 301.16 263.12 291.24 261.02 290.5 C259.639 290.005 258.284 289.441 256.96 288.81 L254.96 287.81 246.19 293.08 230.93 277.82 225.08 283.67 244.9 303.49 255.46 297.16 256.17 297.45 259.17 309.4 290.45 309.4 293.45 297.45 294.15 297.16 304.71 303.49 326.82 281.38 320.5 270.82 C320.59 270.58 320.69 270.35 320.79 270.11 L332.73 267.11 332.73 235.89 320.78 232.89 C320.37 232 320 231.05 319.52 230.14 Z" fill="#425563" fill-opacity="1" stroke="none"/>
  <path id="Path-18" d="M216.88 235.89 L216.88 267.17 228.82 270.17 C229.2 271.103 229.61 272.023 230.05 272.93 L237.5 269.36 C236.872 268.036 236.312 266.681 235.82 265.3 L235.08 263.2 225.15 260.72 225.15 242.35 235.08 239.87 235.82 237.77 C236.31 236.38 236.88 235.03 237.5 233.7 L238.5 231.7 233.23 222.93 246.23 209.93 255 215.2 257 214.2 C258.322 213.568 259.678 213.008 261.06 212.52 L263.16 211.77 265.64 201.85 284 201.85 286.49 211.77 288.58 212.52 C289.965 213.009 291.323 213.57 292.65 214.2 L294.65 215.2 303.43 209.93 318.69 225.19 324.54 219.35 304.71 199.52 294.15 205.85 293.44 205.56 290.44 193.62 259.14 193.62 256.14 205.56 255.43 205.85 244.87 199.52 222.76 221.63 229.09 232.19 C228.99 232.43 228.89 232.66 228.8 232.9 Z" fill="#425563" fill-opacity="1" stroke="none"/>
  <path id="Path-19" d="M386.43 210.5 C386.43 210.39 386.43 210.28 386.43 210.17 386.376 192.243 372.063 177.614 354.141 177.17 350.775 171.359 345.208 167.152 338.7 165.5 333.853 152.651 321.602 144.108 307.87 144 302.759 144.004 297.719 145.199 293.15 147.49 278.688 136.453 258.356 137.537 245.15 150.05 234.765 146.583 223.38 147.877 214.038 153.586 204.696 159.295 198.351 168.837 196.7 179.66 189.001 183.136 183.214 189.814 180.87 197.93 160.912 199.466 145.748 216.52 146.555 236.521 147.363 256.522 163.853 272.298 183.87 272.22 L208.69 272.22 208.69 263.95 183.79 263.95 C170.231 264.01 158.441 254.666 155.401 241.453 152.361 228.239 158.882 214.682 171.104 208.811 183.325 202.939 197.984 206.319 206.4 216.95 L212.86 211.78 C207.044 204.505 198.699 199.692 189.49 198.3 192.629 190.497 200.199 185.389 208.61 185.4 215.992 185.422 222.809 189.358 226.52 195.74 L233.67 191.6 C227.988 181.712 217.012 176.102 205.67 177.29 209.693 163.449 223.287 154.678 237.556 156.718 251.824 158.758 262.416 170.987 262.4 185.4 L270.68 185.4 C270.663 172.642 264.111 160.783 253.32 153.98 264.348 145.676 279.713 146.351 289.97 155.59 L292.27 157.65 294.9 156.03 C300.625 152.475 307.556 151.418 314.08 153.105 320.605 154.792 326.155 159.076 329.44 164.96 317.124 166.615 307.924 177.113 307.9 189.54 L316.17 189.54 C316.134 182.835 320.146 176.771 326.331 174.183 332.516 171.595 339.651 172.994 344.401 177.726 349.151 182.459 350.576 189.589 348.01 195.783 345.444 201.978 339.395 206.012 332.69 206 L332.69 214.28 C346.389 214.263 357.489 203.159 357.5 189.46 357.49 188.184 357.383 186.91 357.18 185.65 368.121 187.347 376.614 196.085 378 207.07 363.876 203.427 349.042 209.537 341.58 222.07 L348.67 226.33 C354.848 216.055 367.489 211.665 378.706 215.899 389.923 220.133 396.51 231.78 394.358 243.575 392.205 255.37 381.929 263.94 369.94 263.94 L341 263.94 341 272.21 370 272.21 C384.974 272.221 398.086 262.164 401.959 247.699 405.831 233.234 399.497 217.972 386.52 210.5 Z" fill="#425563" fill-opacity="1" stroke="none"/>
  <path id="Path-20" d="M365.78 239.12 L374.05 239.12 374.05 247.39 365.78 247.39 Z" fill="#425563" fill-opacity="1" stroke="none"/>
  <path id="Path-21" d="M270.65 218.44 L270.65 218.73 C253.589 220.877 241.02 235.74 241.737 252.921 242.455 270.101 256.219 283.865 273.399 284.583 290.58 285.3 305.443 272.731 307.59 255.67 L307.87 255.67 307.87 247.39 307.59 247.39 C305.675 232.422 293.888 220.64 278.92 218.73 L278.92 218.44 Z M299.65 251.53 C299.65 261.569 293.603 270.619 284.328 274.461 275.053 278.302 264.378 276.179 257.279 269.08 250.181 261.982 248.057 251.307 251.899 242.032 255.741 232.757 264.791 226.71 274.83 226.71 288.513 226.749 299.589 237.846 299.6 251.53 Z" fill="#425563" fill-opacity="1" stroke="none"/>
  <path id="Path-22" d="M179.65 243.26 L187.92 243.26 187.92 251.53 179.65 251.53 Z" fill="#425563" fill-opacity="1" stroke="none"/>
  <path id="Path-23" d="M241.69 172.95 L249.96 172.95 249.96 181.22 241.69 181.22 Z" fill="#425563" fill-opacity="1" stroke="none"/>
  <path id="Path-24" d="M291.33 168.81 L299.6 168.81 299.6 177.08 291.33 177.08 Z" fill="#425563" fill-opacity="1" stroke="none"/>
  <path id="Path-25" d="M203 435.94 C181.042 435.94 161.246 422.713 152.843 402.426 144.439 382.139 149.084 358.788 164.611 343.261 180.138 327.734 203.489 323.089 223.776 331.493 244.063 339.896 257.29 359.692 257.29 381.65 257.259 411.616 232.974 435.905 203.004 435.94 Z M203 342.87 C187.315 342.87 173.174 352.318 167.172 366.81 161.169 381.301 164.487 397.981 175.578 409.072 186.669 420.163 203.349 423.48 217.84 417.478 232.332 411.476 241.78 397.335 241.78 381.65 241.753 360.245 224.408 342.898 203.002 342.87 Z" fill="#e56565" fill-opacity="1" stroke="none"/>
  <path id="Path-26" d="M342.6 435.94 C320.642 435.94 300.846 422.713 292.443 402.426 284.039 382.139 288.684 358.788 304.211 343.261 319.738 327.734 343.089 323.089 363.376 331.493 383.663 339.896 396.89 359.692 396.89 381.65 396.859 411.616 372.573 435.905 342.604 435.94 Z M342.6 342.87 C326.915 342.87 312.774 352.318 306.772 366.81 300.769 381.301 304.087 397.981 315.178 409.072 326.269 420.163 342.949 423.48 357.44 417.478 371.932 411.476 381.38 397.335 381.38 381.65 381.353 360.245 364.008 342.898 342.602 342.87 Z" fill="#e56565" fill-opacity="1" stroke="none"/>
  <path id="Path-27" d="M272.8 311.85 C349.88 311.85 427.91 295.85 427.91 265.31 427.91 256.21 416.4 245.8 397.98 239.86 L397.98 254.86 C408.89 257.16 412.64 262.54 412.64 264.56 412.64 275.08 363.12 296.31 272.8 296.31 182.48 296.31 133.2 275.81 133.2 265.31 133.2 263.31 135.62 257.56 150.81 251.9 L150.81 237.52 C129 243 117.69 256.21 117.69 265.31 117.69 295.86 195.72 311.85 272.8 311.85 Z" fill="#4a6789" fill-opacity="1" stroke="none"/>
  <path id="Path-28" d="M179.73 381.65 C179.73 391.062 185.399 399.547 194.095 403.149 202.79 406.75 212.799 404.76 219.454 398.104 226.109 391.449 228.1 381.44 224.499 372.745 220.897 364.05 212.412 358.38 203 358.38 190.155 358.397 179.746 368.805 179.73 381.65 Z M210.73 381.65 C210.73 384.79 208.838 387.62 205.937 388.82 203.036 390.021 199.698 389.355 197.479 387.134 195.261 384.912 194.599 381.573 195.803 378.673 197.008 375.774 199.84 373.886 202.98 373.89 205.04 373.887 207.016 374.704 208.473 376.159 209.931 377.615 210.75 379.59 210.75 381.65 Z" fill="#5290dd" fill-opacity="1" stroke="none"/>
  <path id="Path-29" d="M319.33 381.65 C319.33 391.062 324.999 399.547 333.695 403.149 342.39 406.75 352.399 404.76 359.054 398.104 365.709 391.449 367.7 381.44 364.099 372.745 360.497 364.05 352.012 358.38 342.6 358.38 329.755 358.397 319.346 368.805 319.33 381.65 Z M350.33 381.65 C350.33 385.936 346.856 389.41 342.57 389.41 338.284 389.41 334.81 385.936 334.81 381.65 334.81 377.364 338.284 373.89 342.57 373.89 344.632 373.885 346.612 374.7 348.073 376.155 349.535 377.611 350.357 379.588 350.36 381.65 Z" fill="#5290dd" fill-opacity="1" stroke="none"/>
  <path id="Path-30" d="M476.999 336.001 C467.02 324.63 444.936 306.541 429.928 304.632 L429.928 296.342 420.588 296.342 C418.952 296.339 417.383 296.987 416.225 298.143 415.068 299.298 414.418 300.867 414.418 302.502 L414.418 406.502 C414.495 433.256 403.861 458.929 384.888 477.792 L337.228 525.402 C329.976 532.7 320.105 536.791 309.818 536.762 L239.818 536.762 C229.53 536.788 219.658 532.702 212.398 525.412 L164.758 477.772 C145.786 458.904 135.152 433.229 135.228 406.472 L135.228 301.722 C135.228 300.294 134.66 298.924 133.648 297.914 132.637 296.905 131.266 296.339 129.838 296.342 L119.688 296.342 119.688 304.632 C104.677 306.525 90.88 313.854 80.908 325.232 L65 340 65.398 366.112 C65.427 398.144 89.807 424.901 121.698 427.902 125.955 450.968 137.138 472.19 153.758 488.742 L201.388 536.372 C211.57 546.553 225.379 552.272 239.778 552.272 L309.778 552.272 C324.185 552.312 338.009 546.588 348.168 536.372 L395.808 488.742 C412.424 472.189 423.604 450.967 427.858 427.902 459.741 424.907 484.123 398.166 484.168 366.142 Z M77.999 366.001 C78.039 343.317 97.323 324.101 119.688 320.302 L119.688 358.382 98.598 358.382 C97.392 358.388 96.418 359.367 96.418 360.572 L96.418 371.712 C96.423 372.914 97.396 373.887 98.598 373.892 L119.688 373.892 119.999 411.001 C119.999 412.871 87.909 391.161 87.999 393.001 Z M429.638 412.002 C429.728 410.162 429.908 408.332 429.908 406.462 L429.908 373.892 450.778 373.892 C451.415 373.895 452.027 373.643 452.478 373.192 452.928 372.741 453.18 372.13 453.178 371.492 L453.178 360.782 C453.178 359.457 452.103 358.382 450.778 358.382 L429.908 358.382 429.908 320.302 C452.353 324.058 468.776 343.515 468.708 366.272 468.641 389.029 452.104 408.389 429.638 412.012 Z" fill="#4a6789" fill-opacity="1" stroke="none"/>
 </g>
 <defs>
  <text id="string" transform="matrix(1.0 0.0 0.0 1.0 563.50525889974 -38.0)" y="564.0" text-decoration="none" font-size="600" x="1.0" font-family="Phosphate-Inline, Phosphate" fill="#4a6789">AIOps</text>
 </defs>
 <use id="AIOps" xlink:href="#string"/>
</svg>
